<?xml version="1.0" standalone="no"?>
<!DOCTYPE svg PUBLIC "-//W3C//DTD SVG 20010904//EN" "http://www.w3.org/TR/2001/REC-SVG-20010904/DTD/svg10.dtd">
<svg version="1.0" xmlns="http://www.w3.org/2000/svg" width="1920.000000pt" height="1920.000000pt"
    viewBox="0 0 1920.000000 1920.000000" preserveAspectRatio="xMidYMid meet">

    <g transform="translate(0.000000,1920.000000) scale(0.100000,-0.100000)" fill="#c3002f" stroke="none">
        <path d="M5280 15769 c-1460 -676 -2658 -1230 -2662 -1231 -5 -2 82 -1425 192
-3163 110 -1738 202 -3203 205 -3255 30 -498 95 -1493 98 -1496 2 -2 211 443
465 988 2845 6127 4343 9352 4353 9371 6 9 8 17 7 16 -2 0 -1198 -554 -2658
-1230z" />
        <path d="M11268 16983 c5 -10 377 -808 825 -1773 720 -1552 1906 -4104 3488
-7510 l504 -1085 8 65 c10 85 500 7851 495 7855 -2 1 -298 139 -658 305 -1483
685 -4636 2143 -4653 2152 -16 8 -17 7 -9 -9z" />
        <path d="M9112 11868 c-265 -645 -693 -1686 -951 -2313 l-469 -1140 954 -3
c525 -1 1383 -1 1908 0 l954 3 -689 1675 c-379 921 -807 1962 -951 2313 -144
350 -265 637 -268 637 -3 0 -223 -528 -488 -1172z" />
        <path d="M6684 6048 c-54 -116 -730 -1764 -725 -1770 3 -4 824 -473 1824
-1043 l1817 -1035 1818 1035 c999 570 1820 1039 1823 1043 5 6 -712 1754 -734
1790 -7 9 -599 12 -2908 12 l-2899 0 -16 -32z" />
    </g>
</svg>