<?xml version="1.0" encoding="iso-8859-1"?>
<!-- Uploaded to: SVG Repo, www.svgrepo.com, Generator: SVG Repo Mixer Tools -->
<svg version="1.1" id="Layer_1" xmlns="http://www.w3.org/2000/svg" xmlns:xlink="http://www.w3.org/1999/xlink" 
	 viewBox="0 0 512 512" xml:space="preserve">
<path style="fill:#B3404A;" d="M438.556,512H19.785c-8.216,0-14.876-6.66-14.876-14.876V256.916c0-8.216,6.66-14.876,14.876-14.876
	s14.876,6.66,14.876,14.876v225.332H423.68v-32.833c0-8.216,6.66-14.876,14.876-14.876c8.216,0,14.876,6.66,14.876,14.876v47.709
	C453.432,505.34,446.772,512,438.556,512z"/>
<g>
	<polygon style="fill:#F4B2B0;" points="19.785,177.122 19.785,172.332 175.581,14.876 175.581,177.122 	"/>
	<rect x="196.154" y="219.435" style="fill:#F4B2B0;" width="296.061" height="163.65"/>
</g>
<g>
	<path style="fill:#B3404A;" d="M492.215,204.559h-38.783V14.876C453.432,6.66,446.772,0,438.556,0H175.581
		c-0.182,0-0.361,0.021-0.541,0.027c-0.168,0.006-0.336,0.013-0.504,0.025c-0.643,0.045-1.279,0.118-1.906,0.244
		c-0.015,0.003-0.03,0.007-0.045,0.012c-0.616,0.126-1.218,0.303-1.81,0.507c-0.156,0.054-0.311,0.109-0.466,0.168
		c-0.583,0.222-1.157,0.467-1.709,0.762c-0.021,0.01-0.042,0.018-0.061,0.03c-0.568,0.305-1.108,0.66-1.635,1.04
		c-0.135,0.097-0.268,0.196-0.4,0.299c-0.522,0.403-1.028,0.827-1.497,1.302L9.21,161.868c-0.35,0.353-0.678,0.721-0.988,1.104
		c-0.207,0.254-0.388,0.521-0.576,0.784c-0.092,0.131-0.195,0.256-0.283,0.388c-0.214,0.326-0.406,0.66-0.592,0.998
		c-0.046,0.083-0.1,0.162-0.143,0.245c-0.183,0.345-0.342,0.701-0.495,1.056c-0.037,0.086-0.082,0.168-0.118,0.256
		c-0.14,0.341-0.256,0.689-0.369,1.038c-0.036,0.112-0.08,0.219-0.113,0.33c-0.095,0.321-0.17,0.646-0.242,0.971
		c-0.034,0.147-0.076,0.293-0.106,0.442c-0.058,0.3-0.095,0.604-0.134,0.907c-0.024,0.177-0.057,0.353-0.073,0.53
		c-0.028,0.303-0.034,0.607-0.045,0.912c-0.006,0.167-0.024,0.332-0.024,0.498v4.792c0,8.216,6.66,14.876,14.876,14.876h155.796
		c8.216,0,14.876-6.66,14.876-14.876V29.752h233.223v174.807H196.156c-8.216,0-14.876,6.66-14.876,14.876v163.644
		c0,8.216,6.66,14.876,14.876,14.876h296.059c8.216,0,14.876-6.66,14.876-14.876V219.435
		C507.091,211.219,500.431,204.559,492.215,204.559z M50.691,162.246L160.705,51.06v111.186H50.691z M477.339,368.203H211.032
		V234.311h266.308V368.203z"/>
	<path style="fill:#B3404A;" d="M298.657,270.343c-7.462,0-11.782,4.189-11.782,13.091v34.689c0,8.902,4.32,13.091,11.651,13.091
		s11.78-4.188,11.78-13.091v-4.451h-7.724c-3.927,0-6.153-3.796-6.153-7.853c0-3.796,2.225-7.854,6.153-7.854h21.993
		c3.927,0,6.153,3.011,6.153,6.416v13.744c0,22.516-14.137,30.894-32.202,30.894s-32.073-8.378-32.073-30.894v-34.689
		c0-22.516,14.269-30.894,31.418-30.894c18.718,0,32.856,9.425,32.856,26.051c0,7.854-3.273,9.687-10.211,9.687
		c-5.498,0-10.078-1.44-10.211-6.153C310.177,277.412,309.784,270.343,298.657,270.343z"/>
	<path style="fill:#B3404A;" d="M342.513,258.693c0-4.318,5.105-6.153,10.211-6.153c5.105,0,10.211,1.833,10.211,6.153v83.256
		c0,4.189-5.105,6.284-10.211,6.284c-5.105,0-10.211-2.093-10.211-6.284V258.693z"/>
	<path style="fill:#B3404A;" d="M377.071,258.825c0-4.189,4.451-6.285,8.902-6.285h45.424c4.32,0,6.153,4.582,6.153,8.771
		c0,4.844-2.225,9.031-6.153,9.031h-33.905v22.123h19.767c3.927,0,6.153,3.796,6.153,7.984c0,3.535-1.833,7.724-6.153,7.724h-19.767
		v33.773c0,4.189-5.105,6.284-10.211,6.284s-10.211-2.093-10.211-6.284v-83.121H377.071z"/>
</g>
</svg>