<?xml version="1.0" encoding="iso-8859-1"?>
<!-- Uploaded to: SVG Repo, www.svgrepo.com, Generator: SVG Repo Mixer Tools -->
<svg height="800px" width="800px" version="1.1" id="Layer_1" xmlns="http://www.w3.org/2000/svg"
	xmlns:xlink="http://www.w3.org/1999/xlink" viewBox="0 0 511.844 511.844" xml:space="preserve">
	<path style="fill:#434A54;" d="M298.497,0h-85.161c-11.777,0-21.329,9.544-21.329,21.321v49.985c0,3.92,1.062,5.232,2.913,5.232
	c3.702,0,10.56-5.232,18.416-5.232h85.161c7.857,0,14.715,5.232,18.416,5.232c1.859,0,2.922-1.312,2.922-5.232V21.321
	C319.835,9.544,310.275,0,298.497,0z M298.497,49.984h-85.161V21.321h85.161V49.984z" />
	<path style="fill:#4A89DC;" d="M447.859,42.644H63.976c-11.777,0-21.329,9.56-21.329,21.337v21.321l63.98,426.542h298.588
	l63.98-426.542V63.981C469.195,52.203,459.636,42.644,447.859,42.644z" />
	<path style="fill:#5D9CEC;" d="M469.195,63.981c0-11.777-9.56-21.337-21.337-21.337H63.976c-11.777,0-21.329,9.56-21.329,21.337
	v21.321h426.549V63.981H469.195z" />
	<path style="fill:#E6E9ED;" d="M354.637,240.661c-0.531-1.281-1.312-2.483-2.343-3.515c-4.155-4.171-10.903-4.171-15.074,0
	c-3.295,3.28-3.967,8.185-2.077,12.152c5.577,11.466,8.513,24.118,8.513,37.223c0,22.791-8.888,44.222-24.992,60.326
	s-37.535,24.992-60.317,24.992c-11.715,0-23.071-2.358-33.528-6.826l13.659-5.92c5.405-2.327,7.889-8.607,5.546-14.012
	c-2.336-5.404-8.615-7.888-14.02-5.561l-39.145,16.948c-5.068,2.202-7.567,7.856-5.928,13.012c0.109,0.343,0.234,0.687,0.383,1.015
	l16.948,39.145c2.335,5.404,8.614,7.889,14.019,5.545c5.405-2.343,7.889-8.606,5.554-14.026l-7.592-17.526
	c39.293,17.839,87.192,10.606,119.495-21.712C366.539,329.135,373.506,280.274,354.637,240.661z" />
	<path style="fill:#F5F7FA;" d="M168.178,290.037c0-22.791,8.873-44.206,24.985-60.326c16.112-16.104,37.543-24.977,60.325-24.977
	c11.715,0,23.079,2.343,33.528,6.811l-13.668,5.92c-5.396,2.343-7.88,8.622-5.537,14.027c2.336,5.404,8.615,7.888,14.02,5.545
	l39.145-16.948c5.404-2.343,7.888-8.622,5.545-14.026l-16.948-39.145c-2.343-5.404-8.606-7.889-14.011-5.545
	c-5.405,2.343-7.904,8.622-5.562,14.026l7.592,17.526c-39.293-17.839-87.192-10.606-119.503,21.712
	c-32.802,32.803-39.761,81.647-20.892,121.276c0.523,1.28,1.304,2.467,2.335,3.514c4.171,4.155,10.919,4.155,15.081,0
	c3.288-3.296,3.968-8.2,2.07-12.168C171.123,315.811,168.178,303.143,168.178,290.037z" />
	<g style="opacity:0.2;">
		<path style="fill:#FFFFFF;" d="M447.859,42.644h-21.338c11.778,0,21.338,9.56,21.338,21.337v21.321l-63.98,426.542h21.337
		l63.98-426.542V63.981C469.195,52.203,459.636,42.644,447.859,42.644z" />
	</g>
</svg>